<?xml version="1.0" encoding="UTF-8" standalone="no"?>
<!DOCTYPE svg PUBLIC "-//W3C//DTD SVG 1.1//EN"
 "http://www.w3.org/Graphics/SVG/1.1/DTD/svg11.dtd">
<!-- Generated by graphviz version 2.38.0 (20140413.2041)
 -->
<!-- Title: output Pages: 1 -->
<svg width="605pt" height="1611pt"
 viewBox="0.00 0.00 605.00 1611.00" xmlns="http://www.w3.org/2000/svg" xmlns:xlink="http://www.w3.org/1999/xlink">
<g id="graph0" class="graph" transform="scale(1 1) rotate(0) translate(4 1607)">
<title>output</title>
<polygon fill="white" stroke="none" points="-4,4 -4,-1607 601,-1607 601,4 -4,4"/>
<!-- Legend -->
<g id="node1" class="node"><title>Legend</title>
<polygon fill="#e0e0e0" stroke="none" points="8.5,-1548.5 8.5,-1571.5 209.5,-1571.5 209.5,-1548.5 8.5,-1548.5"/>
<polygon fill="none" stroke="black" points="8.5,-1548.5 8.5,-1571.5 209.5,-1571.5 209.5,-1548.5 8.5,-1548.5"/>
<text text-anchor="start" x="93" y="-1556.3" font-family="Times,serif" font-size="14.00">Layer</text>
<polygon fill="#88ffff" stroke="none" points="8.5,-1510.5 8.5,-1548.5 89.5,-1548.5 89.5,-1510.5 8.5,-1510.5"/>
<polygon fill="none" stroke="black" points="8.5,-1510.5 8.5,-1548.5 89.5,-1548.5 89.5,-1510.5 8.5,-1510.5"/>
<text text-anchor="start" x="12.5" y="-1533.3" font-family="Times,serif" font-size="14.00"> Complexity </text>
<text text-anchor="start" x="15" y="-1518.3" font-family="Times,serif" font-size="14.00"> (MFLOPs) </text>
<polygon fill="#ff88ff" stroke="none" points="89.5,-1510.5 89.5,-1548.5 164.5,-1548.5 164.5,-1510.5 89.5,-1510.5"/>
<polygon fill="none" stroke="black" points="89.5,-1510.5 89.5,-1548.5 164.5,-1548.5 164.5,-1510.5 89.5,-1510.5"/>
<text text-anchor="start" x="93.5" y="-1533.3" font-family="Times,serif" font-size="14.00"> Bandwidth </text>
<text text-anchor="start" x="103" y="-1518.3" font-family="Times,serif" font-size="14.00"> (MB/s) </text>
<polygon fill="#ffff88" stroke="none" points="164.5,-1510.5 164.5,-1548.5 209.5,-1548.5 209.5,-1510.5 164.5,-1510.5"/>
<polygon fill="none" stroke="black" points="164.5,-1510.5 164.5,-1548.5 209.5,-1548.5 209.5,-1510.5 164.5,-1510.5"/>
<text text-anchor="start" x="168.5" y="-1533.3" font-family="Times,serif" font-size="14.00"> Time </text>
<text text-anchor="start" x="172" y="-1518.3" font-family="Times,serif" font-size="14.00"> (ms)</text>
</g>
<!-- Input -->
<g id="node2" class="node"><title>Input</title>
<ellipse fill="none" stroke="black" cx="306.5" cy="-1541.5" rx="71.4873" ry="18"/>
<text text-anchor="middle" x="306.5" y="-1537.8" font-family="Times,serif" font-size="14.00">input: (64, 64, 3)</text>
</g>
<!-- Relu -->
<g id="node3" class="node"><title>Relu</title>
<polygon fill="#a3a3a3" stroke="none" points="220.5,-1417 220.5,-1440 392.5,-1440 392.5,-1417 220.5,-1417"/>
<polygon fill="none" stroke="black" points="220.5,-1417 220.5,-1440 392.5,-1440 392.5,-1417 220.5,-1417"/>
<text text-anchor="start" x="293.5" y="-1424.8" font-family="Times,serif" font-size="14.00">Relu</text>
<polygon fill="#dddddd" stroke="none" points="220.5,-1394 220.5,-1417 392.5,-1417 392.5,-1394 220.5,-1394"/>
<polygon fill="none" stroke="black" points="220.5,-1394 220.5,-1417 392.5,-1417 392.5,-1394 220.5,-1394"/>
<text text-anchor="start" x="274" y="-1401.8" font-family="Times,serif" font-size="14.00">(64, 64, 64)</text>
<polygon fill="#a4eeeb" stroke="none" points="220.5,-1356 220.5,-1394 296.5,-1394 296.5,-1356 220.5,-1356"/>
<polygon fill="none" stroke="black" points="220.5,-1356 220.5,-1394 296.5,-1394 296.5,-1356 220.5,-1356"/>
<text text-anchor="start" x="225.5" y="-1378.8" font-family="Times,serif" font-size="14.00"> 14.155776 </text>
<text text-anchor="start" x="224.5" y="-1363.8" font-family="Times,serif" font-size="14.00"> (MFLOPs) </text>
<polygon fill="#fee4fb" stroke="none" points="296.5,-1356 296.5,-1394 352.5,-1394 352.5,-1356 296.5,-1356"/>
<polygon fill="none" stroke="black" points="296.5,-1356 296.5,-1394 352.5,-1394 352.5,-1356 296.5,-1356"/>
<text text-anchor="start" x="305" y="-1378.8" font-family="Times,serif" font-size="14.00"> 32.61 </text>
<text text-anchor="start" x="300.5" y="-1363.8" font-family="Times,serif" font-size="14.00"> (MB/s) </text>
<polygon fill="#ffff95" stroke="none" points="352.5,-1356 352.5,-1394 392.5,-1394 392.5,-1356 352.5,-1356"/>
<polygon fill="none" stroke="black" points="352.5,-1356 352.5,-1394 392.5,-1394 392.5,-1356 352.5,-1356"/>
<text text-anchor="start" x="356.5" y="-1378.8" font-family="Times,serif" font-size="14.00"> 6.60 </text>
<text text-anchor="start" x="357.5" y="-1363.8" font-family="Times,serif" font-size="14.00"> (ms)</text>
</g>
<!-- Input&#45;&gt;Relu -->
<g id="edge1" class="edge"><title>Input&#45;&gt;Relu</title>
<path fill="none" stroke="black" d="M306.5,-1523.43C306.5,-1506.25 306.5,-1478.81 306.5,-1454.07"/>
<polygon fill="black" stroke="black" points="310,-1454.03 306.5,-1444.03 303,-1454.03 310,-1454.03"/>
</g>
<!-- MaxPool -->
<g id="node4" class="node"><title>MaxPool</title>
<polygon fill="#a3a3a3" stroke="none" points="220.5,-1289 220.5,-1312 392.5,-1312 392.5,-1289 220.5,-1289"/>
<polygon fill="none" stroke="black" points="220.5,-1289 220.5,-1312 392.5,-1312 392.5,-1289 220.5,-1289"/>
<text text-anchor="start" x="281" y="-1296.8" font-family="Times,serif" font-size="14.00">MaxPool</text>
<polygon fill="#dddddd" stroke="none" points="220.5,-1266 220.5,-1289 392.5,-1289 392.5,-1266 220.5,-1266"/>
<polygon fill="none" stroke="black" points="220.5,-1266 220.5,-1289 392.5,-1289 392.5,-1266 220.5,-1266"/>
<text text-anchor="start" x="274" y="-1273.8" font-family="Times,serif" font-size="14.00">(64, 32, 32)</text>
<polygon fill="#b0f0ee" stroke="none" points="220.5,-1228 220.5,-1266 296.5,-1266 296.5,-1228 220.5,-1228"/>
<polygon fill="none" stroke="black" points="220.5,-1228 220.5,-1266 296.5,-1266 296.5,-1228 220.5,-1228"/>
<text text-anchor="start" x="229" y="-1250.8" font-family="Times,serif" font-size="14.00"> 0.262144 </text>
<text text-anchor="start" x="224.5" y="-1235.8" font-family="Times,serif" font-size="14.00"> (MFLOPs) </text>
<polygon fill="#efbbe8" stroke="none" points="296.5,-1228 296.5,-1266 352.5,-1266 352.5,-1228 296.5,-1228"/>
<polygon fill="none" stroke="black" points="296.5,-1228 296.5,-1266 352.5,-1266 352.5,-1228 296.5,-1228"/>
<text text-anchor="start" x="301.5" y="-1250.8" font-family="Times,serif" font-size="14.00"> 489.22 </text>
<text text-anchor="start" x="300.5" y="-1235.8" font-family="Times,serif" font-size="14.00"> (MB/s) </text>
<polygon fill="#ffffc3" stroke="none" points="352.5,-1228 352.5,-1266 392.5,-1266 392.5,-1228 352.5,-1228"/>
<polygon fill="none" stroke="black" points="352.5,-1228 352.5,-1266 392.5,-1266 392.5,-1228 352.5,-1228"/>
<text text-anchor="start" x="356.5" y="-1250.8" font-family="Times,serif" font-size="14.00"> 1.02 </text>
<text text-anchor="start" x="357.5" y="-1235.8" font-family="Times,serif" font-size="14.00"> (ms)</text>
</g>
<!-- Relu&#45;&gt;MaxPool -->
<g id="edge2" class="edge"><title>Relu&#45;&gt;MaxPool</title>
<path fill="none" stroke="black" d="M306.5,-1351.87C306.5,-1343.63 306.5,-1334.96 306.5,-1326.47"/>
<polygon fill="black" stroke="black" points="310,-1326.24 306.5,-1316.24 303,-1326.24 310,-1326.24"/>
</g>
<!-- LRN -->
<g id="node5" class="node"><title>LRN</title>
<polygon fill="#a3a3a3" stroke="none" points="220.5,-1161 220.5,-1184 392.5,-1184 392.5,-1161 220.5,-1161"/>
<polygon fill="none" stroke="black" points="220.5,-1161 220.5,-1184 392.5,-1184 392.5,-1161 220.5,-1161"/>
<text text-anchor="start" x="292.5" y="-1168.8" font-family="Times,serif" font-size="14.00">LRN</text>
<polygon fill="#dddddd" stroke="none" points="220.5,-1138 220.5,-1161 392.5,-1161 392.5,-1138 220.5,-1138"/>
<polygon fill="none" stroke="black" points="220.5,-1138 220.5,-1161 392.5,-1161 392.5,-1138 220.5,-1138"/>
<text text-anchor="start" x="274" y="-1145.8" font-family="Times,serif" font-size="14.00">(64, 32, 32)</text>
<polygon fill="#b1f1ef" stroke="none" points="220.5,-1100 220.5,-1138 296.5,-1138 296.5,-1100 220.5,-1100"/>
<polygon fill="none" stroke="black" points="220.5,-1100 220.5,-1138 296.5,-1138 296.5,-1100 220.5,-1100"/>
<text text-anchor="start" x="246" y="-1122.8" font-family="Times,serif" font-size="14.00"> 0.0 </text>
<text text-anchor="start" x="224.5" y="-1107.8" font-family="Times,serif" font-size="14.00"> (MFLOPs) </text>
<polygon fill="#fde0fa" stroke="none" points="296.5,-1100 296.5,-1138 352.5,-1138 352.5,-1100 296.5,-1100"/>
<polygon fill="none" stroke="black" points="296.5,-1100 296.5,-1138 352.5,-1138 352.5,-1100 296.5,-1100"/>
<text text-anchor="start" x="305" y="-1122.8" font-family="Times,serif" font-size="14.00"> 76.79 </text>
<text text-anchor="start" x="300.5" y="-1107.8" font-family="Times,serif" font-size="14.00"> (MB/s) </text>
<polygon fill="#ffffbe" stroke="none" points="352.5,-1100 352.5,-1138 392.5,-1138 392.5,-1100 352.5,-1100"/>
<polygon fill="none" stroke="black" points="352.5,-1100 352.5,-1138 392.5,-1138 392.5,-1100 352.5,-1100"/>
<text text-anchor="start" x="356.5" y="-1122.8" font-family="Times,serif" font-size="14.00"> 1.63 </text>
<text text-anchor="start" x="357.5" y="-1107.8" font-family="Times,serif" font-size="14.00"> (ms)</text>
</g>
<!-- MaxPool&#45;&gt;LRN -->
<g id="edge3" class="edge"><title>MaxPool&#45;&gt;LRN</title>
<path fill="none" stroke="black" d="M306.5,-1223.87C306.5,-1215.63 306.5,-1206.96 306.5,-1198.47"/>
<polygon fill="black" stroke="black" points="310,-1198.24 306.5,-1188.24 303,-1198.24 310,-1198.24"/>
</g>
<!-- Relu_1 -->
<g id="node6" class="node"><title>Relu_1</title>
<polygon fill="#a3a3a3" stroke="none" points="214.5,-1033 214.5,-1056 398.5,-1056 398.5,-1033 214.5,-1033"/>
<polygon fill="none" stroke="black" points="214.5,-1033 214.5,-1056 398.5,-1056 398.5,-1033 214.5,-1033"/>
<text text-anchor="start" x="286.5" y="-1040.8" font-family="Times,serif" font-size="14.00">Relu_1</text>
<polygon fill="#dddddd" stroke="none" points="214.5,-1010 214.5,-1033 398.5,-1033 398.5,-1010 214.5,-1010"/>
<polygon fill="none" stroke="black" points="214.5,-1010 214.5,-1033 398.5,-1033 398.5,-1010 214.5,-1010"/>
<text text-anchor="start" x="270.5" y="-1017.8" font-family="Times,serif" font-size="14.00">(128, 32, 32)</text>
<polygon fill="#2ed1c6" stroke="none" points="214.5,-972 214.5,-1010 295.5,-1010 295.5,-972 214.5,-972"/>
<polygon fill="none" stroke="black" points="214.5,-972 214.5,-1010 295.5,-1010 295.5,-972 214.5,-972"/>
<text text-anchor="start" x="218.5" y="-994.8" font-family="Times,serif" font-size="14.00"> 150.994944 </text>
<text text-anchor="start" x="221" y="-979.8" font-family="Times,serif" font-size="14.00"> (MFLOPs) </text>
<polygon fill="#fee2fa" stroke="none" points="295.5,-972 295.5,-1010 351.5,-1010 351.5,-972 295.5,-972"/>
<polygon fill="none" stroke="black" points="295.5,-972 295.5,-1010 351.5,-1010 351.5,-972 295.5,-972"/>
<text text-anchor="start" x="304" y="-994.8" font-family="Times,serif" font-size="14.00"> 55.21 </text>
<text text-anchor="start" x="299.5" y="-979.8" font-family="Times,serif" font-size="14.00"> (MB/s) </text>
<polygon fill="#ffff0c" stroke="none" points="351.5,-972 351.5,-1010 398.5,-1010 398.5,-972 351.5,-972"/>
<polygon fill="none" stroke="black" points="351.5,-972 351.5,-1010 398.5,-1010 398.5,-972 351.5,-972"/>
<text text-anchor="start" x="355.5" y="-994.8" font-family="Times,serif" font-size="14.00"> 22.96 </text>
<text text-anchor="start" x="360" y="-979.8" font-family="Times,serif" font-size="14.00"> (ms)</text>
</g>
<!-- LRN&#45;&gt;Relu_1 -->
<g id="edge4" class="edge"><title>LRN&#45;&gt;Relu_1</title>
<path fill="none" stroke="black" d="M306.5,-1095.87C306.5,-1087.63 306.5,-1078.96 306.5,-1070.47"/>
<polygon fill="black" stroke="black" points="310,-1070.24 306.5,-1060.24 303,-1070.24 310,-1070.24"/>
</g>
<!-- MaxPool_1 -->
<g id="node7" class="node"><title>MaxPool_1</title>
<polygon fill="#a3a3a3" stroke="none" points="220.5,-905 220.5,-928 392.5,-928 392.5,-905 220.5,-905"/>
<polygon fill="none" stroke="black" points="220.5,-905 220.5,-928 392.5,-928 392.5,-905 220.5,-905"/>
<text text-anchor="start" x="274.5" y="-912.8" font-family="Times,serif" font-size="14.00">MaxPool_1</text>
<polygon fill="#dddddd" stroke="none" points="220.5,-882 220.5,-905 392.5,-905 392.5,-882 220.5,-882"/>
<polygon fill="none" stroke="black" points="220.5,-882 220.5,-905 392.5,-905 392.5,-882 220.5,-882"/>
<text text-anchor="start" x="270.5" y="-889.8" font-family="Times,serif" font-size="14.00">(128, 16, 16)</text>
<polygon fill="#b0f0ee" stroke="none" points="220.5,-844 220.5,-882 296.5,-882 296.5,-844 220.5,-844"/>
<polygon fill="none" stroke="black" points="220.5,-844 220.5,-882 296.5,-882 296.5,-844 220.5,-844"/>
<text text-anchor="start" x="229" y="-866.8" font-family="Times,serif" font-size="14.00"> 0.131072 </text>
<text text-anchor="start" x="224.5" y="-851.8" font-family="Times,serif" font-size="14.00"> (MFLOPs) </text>
<polygon fill="#efbbe9" stroke="none" points="296.5,-844 296.5,-882 352.5,-882 352.5,-844 296.5,-844"/>
<polygon fill="none" stroke="black" points="296.5,-844 296.5,-882 352.5,-882 352.5,-844 296.5,-844"/>
<text text-anchor="start" x="301.5" y="-866.8" font-family="Times,serif" font-size="14.00"> 480.53 </text>
<text text-anchor="start" x="300.5" y="-851.8" font-family="Times,serif" font-size="14.00"> (MB/s) </text>
<polygon fill="#ffffc7" stroke="none" points="352.5,-844 352.5,-882 392.5,-882 392.5,-844 352.5,-844"/>
<polygon fill="none" stroke="black" points="352.5,-844 352.5,-882 392.5,-882 392.5,-844 352.5,-844"/>
<text text-anchor="start" x="356.5" y="-866.8" font-family="Times,serif" font-size="14.00"> 0.52 </text>
<text text-anchor="start" x="357.5" y="-851.8" font-family="Times,serif" font-size="14.00"> (ms)</text>
</g>
<!-- Relu_1&#45;&gt;MaxPool_1 -->
<g id="edge5" class="edge"><title>Relu_1&#45;&gt;MaxPool_1</title>
<path fill="none" stroke="black" d="M306.5,-967.867C306.5,-959.634 306.5,-950.957 306.5,-942.465"/>
<polygon fill="black" stroke="black" points="310,-942.241 306.5,-932.241 303,-942.241 310,-942.241"/>
</g>
<!-- LRN_1 -->
<g id="node8" class="node"><title>LRN_1</title>
<polygon fill="#a3a3a3" stroke="none" points="220.5,-777 220.5,-800 392.5,-800 392.5,-777 220.5,-777"/>
<polygon fill="none" stroke="black" points="220.5,-777 220.5,-800 392.5,-800 392.5,-777 220.5,-777"/>
<text text-anchor="start" x="286" y="-784.8" font-family="Times,serif" font-size="14.00">LRN_1</text>
<polygon fill="#dddddd" stroke="none" points="220.5,-754 220.5,-777 392.5,-777 392.5,-754 220.5,-754"/>
<polygon fill="none" stroke="black" points="220.5,-754 220.5,-777 392.5,-777 392.5,-754 220.5,-754"/>
<text text-anchor="start" x="270.5" y="-761.8" font-family="Times,serif" font-size="14.00">(128, 16, 16)</text>
<polygon fill="#b1f1ef" stroke="none" points="220.5,-716 220.5,-754 296.5,-754 296.5,-716 220.5,-716"/>
<polygon fill="none" stroke="black" points="220.5,-716 220.5,-754 296.5,-754 296.5,-716 220.5,-716"/>
<text text-anchor="start" x="246" y="-738.8" font-family="Times,serif" font-size="14.00"> 0.0 </text>
<text text-anchor="start" x="224.5" y="-723.8" font-family="Times,serif" font-size="14.00"> (MFLOPs) </text>
<polygon fill="#fde0f9" stroke="none" points="296.5,-716 296.5,-754 352.5,-754 352.5,-716 296.5,-716"/>
<polygon fill="none" stroke="black" points="296.5,-716 296.5,-754 352.5,-754 352.5,-716 296.5,-716"/>
<text text-anchor="start" x="305" y="-738.8" font-family="Times,serif" font-size="14.00"> 80.92 </text>
<text text-anchor="start" x="300.5" y="-723.8" font-family="Times,serif" font-size="14.00"> (MB/s) </text>
<polygon fill="#ffffc5" stroke="none" points="352.5,-716 352.5,-754 392.5,-754 392.5,-716 352.5,-716"/>
<polygon fill="none" stroke="black" points="352.5,-716 352.5,-754 392.5,-754 392.5,-716 352.5,-716"/>
<text text-anchor="start" x="356.5" y="-738.8" font-family="Times,serif" font-size="14.00"> 0.78 </text>
<text text-anchor="start" x="357.5" y="-723.8" font-family="Times,serif" font-size="14.00"> (ms)</text>
</g>
<!-- MaxPool_1&#45;&gt;LRN_1 -->
<g id="edge6" class="edge"><title>MaxPool_1&#45;&gt;LRN_1</title>
<path fill="none" stroke="black" d="M306.5,-839.867C306.5,-831.634 306.5,-822.957 306.5,-814.465"/>
<polygon fill="black" stroke="black" points="310,-814.241 306.5,-804.241 303,-814.241 310,-814.241"/>
</g>
<!-- Relu_2 -->
<g id="node9" class="node"><title>Relu_2</title>
<polygon fill="#a3a3a3" stroke="none" points="214.5,-649 214.5,-672 398.5,-672 398.5,-649 214.5,-649"/>
<polygon fill="none" stroke="black" points="214.5,-649 214.5,-672 398.5,-672 398.5,-649 214.5,-649"/>
<text text-anchor="start" x="286.5" y="-656.8" font-family="Times,serif" font-size="14.00">Relu_2</text>
<polygon fill="#dddddd" stroke="none" points="214.5,-626 214.5,-649 398.5,-649 398.5,-626 214.5,-626"/>
<polygon fill="none" stroke="black" points="214.5,-626 214.5,-649 398.5,-649 398.5,-626 214.5,-626"/>
<text text-anchor="start" x="270.5" y="-633.8" font-family="Times,serif" font-size="14.00">(256, 16, 16)</text>
<polygon fill="#2ed1c6" stroke="none" points="214.5,-588 214.5,-626 295.5,-626 295.5,-588 214.5,-588"/>
<polygon fill="none" stroke="black" points="214.5,-588 214.5,-626 295.5,-626 295.5,-588 214.5,-588"/>
<text text-anchor="start" x="218.5" y="-610.8" font-family="Times,serif" font-size="14.00"> 150.994944 </text>
<text text-anchor="start" x="221" y="-595.8" font-family="Times,serif" font-size="14.00"> (MFLOPs) </text>
<polygon fill="#fee3fb" stroke="none" points="295.5,-588 295.5,-626 351.5,-626 351.5,-588 295.5,-588"/>
<polygon fill="none" stroke="black" points="295.5,-588 295.5,-626 351.5,-626 351.5,-588 295.5,-588"/>
<text text-anchor="start" x="304" y="-610.8" font-family="Times,serif" font-size="14.00"> 46.24 </text>
<text text-anchor="start" x="299.5" y="-595.8" font-family="Times,serif" font-size="14.00"> (MB/s) </text>
<polygon fill="#ffff00" stroke="none" points="351.5,-588 351.5,-626 398.5,-626 398.5,-588 351.5,-588"/>
<polygon fill="none" stroke="black" points="351.5,-588 351.5,-626 398.5,-626 398.5,-588 351.5,-588"/>
<text text-anchor="start" x="355.5" y="-610.8" font-family="Times,serif" font-size="14.00"> 24.42 </text>
<text text-anchor="start" x="360" y="-595.8" font-family="Times,serif" font-size="14.00"> (ms)</text>
</g>
<!-- LRN_1&#45;&gt;Relu_2 -->
<g id="edge7" class="edge"><title>LRN_1&#45;&gt;Relu_2</title>
<path fill="none" stroke="black" d="M306.5,-711.867C306.5,-703.634 306.5,-694.957 306.5,-686.465"/>
<polygon fill="black" stroke="black" points="310,-686.241 306.5,-676.241 303,-686.241 310,-686.241"/>
</g>
<!-- MaxPool_2 -->
<g id="node10" class="node"><title>MaxPool_2</title>
<polygon fill="#a3a3a3" stroke="none" points="220.5,-521 220.5,-544 392.5,-544 392.5,-521 220.5,-521"/>
<polygon fill="none" stroke="black" points="220.5,-521 220.5,-544 392.5,-544 392.5,-521 220.5,-521"/>
<text text-anchor="start" x="274.5" y="-528.8" font-family="Times,serif" font-size="14.00">MaxPool_2</text>
<polygon fill="#dddddd" stroke="none" points="220.5,-498 220.5,-521 392.5,-521 392.5,-498 220.5,-498"/>
<polygon fill="none" stroke="black" points="220.5,-498 220.5,-521 392.5,-521 392.5,-498 220.5,-498"/>
<text text-anchor="start" x="277.5" y="-505.8" font-family="Times,serif" font-size="14.00">(256, 8, 8)</text>
<polygon fill="#b0f0ee" stroke="none" points="220.5,-460 220.5,-498 296.5,-498 296.5,-460 220.5,-460"/>
<polygon fill="none" stroke="black" points="220.5,-460 220.5,-498 296.5,-498 296.5,-460 220.5,-460"/>
<text text-anchor="start" x="229" y="-482.8" font-family="Times,serif" font-size="14.00"> 0.065536 </text>
<text text-anchor="start" x="224.5" y="-467.8" font-family="Times,serif" font-size="14.00"> (MFLOPs) </text>
<polygon fill="#f0bde9" stroke="none" points="296.5,-460 296.5,-498 352.5,-498 352.5,-460 296.5,-460"/>
<polygon fill="none" stroke="black" points="296.5,-460 296.5,-498 352.5,-498 352.5,-460 296.5,-460"/>
<text text-anchor="start" x="301.5" y="-482.8" font-family="Times,serif" font-size="14.00"> 463.58 </text>
<text text-anchor="start" x="300.5" y="-467.8" font-family="Times,serif" font-size="14.00"> (MB/s) </text>
<polygon fill="#ffffca" stroke="none" points="352.5,-460 352.5,-498 392.5,-498 392.5,-460 352.5,-460"/>
<polygon fill="none" stroke="black" points="352.5,-460 352.5,-498 392.5,-498 392.5,-460 352.5,-460"/>
<text text-anchor="start" x="356.5" y="-482.8" font-family="Times,serif" font-size="14.00"> 0.27 </text>
<text text-anchor="start" x="357.5" y="-467.8" font-family="Times,serif" font-size="14.00"> (ms)</text>
</g>
<!-- Relu_2&#45;&gt;MaxPool_2 -->
<g id="edge8" class="edge"><title>Relu_2&#45;&gt;MaxPool_2</title>
<path fill="none" stroke="black" d="M306.5,-583.867C306.5,-575.634 306.5,-566.957 306.5,-558.465"/>
<polygon fill="black" stroke="black" points="310,-558.241 306.5,-548.241 303,-558.241 310,-558.241"/>
</g>
<!-- LRN_2 -->
<g id="node11" class="node"><title>LRN_2</title>
<polygon fill="#a3a3a3" stroke="none" points="220.5,-393 220.5,-416 392.5,-416 392.5,-393 220.5,-393"/>
<polygon fill="none" stroke="black" points="220.5,-393 220.5,-416 392.5,-416 392.5,-393 220.5,-393"/>
<text text-anchor="start" x="286" y="-400.8" font-family="Times,serif" font-size="14.00">LRN_2</text>
<polygon fill="#dddddd" stroke="none" points="220.5,-370 220.5,-393 392.5,-393 392.5,-370 220.5,-370"/>
<polygon fill="none" stroke="black" points="220.5,-370 220.5,-393 392.5,-393 392.5,-370 220.5,-370"/>
<text text-anchor="start" x="277.5" y="-377.8" font-family="Times,serif" font-size="14.00">(256, 8, 8)</text>
<polygon fill="#b1f1ef" stroke="none" points="220.5,-332 220.5,-370 296.5,-370 296.5,-332 220.5,-332"/>
<polygon fill="none" stroke="black" points="220.5,-332 220.5,-370 296.5,-370 296.5,-332 220.5,-332"/>
<text text-anchor="start" x="246" y="-354.8" font-family="Times,serif" font-size="14.00"> 0.0 </text>
<text text-anchor="start" x="224.5" y="-339.8" font-family="Times,serif" font-size="14.00"> (MFLOPs) </text>
<polygon fill="#fde0f9" stroke="none" points="296.5,-332 296.5,-370 352.5,-370 352.5,-332 296.5,-332"/>
<polygon fill="none" stroke="black" points="296.5,-332 296.5,-370 352.5,-370 352.5,-332 296.5,-332"/>
<text text-anchor="start" x="305" y="-354.8" font-family="Times,serif" font-size="14.00"> 82.43 </text>
<text text-anchor="start" x="300.5" y="-339.8" font-family="Times,serif" font-size="14.00"> (MB/s) </text>
<polygon fill="#ffffc9" stroke="none" points="352.5,-332 352.5,-370 392.5,-370 392.5,-332 352.5,-332"/>
<polygon fill="none" stroke="black" points="352.5,-332 352.5,-370 392.5,-370 392.5,-332 352.5,-332"/>
<text text-anchor="start" x="356.5" y="-354.8" font-family="Times,serif" font-size="14.00"> 0.39 </text>
<text text-anchor="start" x="357.5" y="-339.8" font-family="Times,serif" font-size="14.00"> (ms)</text>
</g>
<!-- MaxPool_2&#45;&gt;LRN_2 -->
<g id="edge9" class="edge"><title>MaxPool_2&#45;&gt;LRN_2</title>
<path fill="none" stroke="black" d="M306.5,-455.867C306.5,-447.634 306.5,-438.957 306.5,-430.465"/>
<polygon fill="black" stroke="black" points="310,-430.241 306.5,-420.241 303,-430.241 310,-430.241"/>
</g>
<!-- Relu_3 -->
<g id="node12" class="node"><title>Relu_3</title>
<polygon fill="#a3a3a3" stroke="none" points="218.5,-265 218.5,-288 394.5,-288 394.5,-265 218.5,-265"/>
<polygon fill="none" stroke="black" points="218.5,-265 218.5,-288 394.5,-288 394.5,-265 218.5,-265"/>
<text text-anchor="start" x="286.5" y="-272.8" font-family="Times,serif" font-size="14.00">Relu_3</text>
<polygon fill="#dddddd" stroke="none" points="218.5,-242 218.5,-265 394.5,-265 394.5,-242 218.5,-242"/>
<polygon fill="none" stroke="black" points="218.5,-242 218.5,-265 394.5,-265 394.5,-242 218.5,-242"/>
<text text-anchor="start" x="277.5" y="-249.8" font-family="Times,serif" font-size="14.00">(256, 1, 1)</text>
<polygon fill="#a9efec" stroke="none" points="218.5,-204 218.5,-242 294.5,-242 294.5,-204 218.5,-204"/>
<polygon fill="none" stroke="black" points="218.5,-204 218.5,-242 294.5,-242 294.5,-204 218.5,-204"/>
<text text-anchor="start" x="227" y="-226.8" font-family="Times,serif" font-size="14.00"> 8.388608 </text>
<text text-anchor="start" x="222.5" y="-211.8" font-family="Times,serif" font-size="14.00"> (MFLOPs) </text>
<polygon fill="#b1179d" stroke="none" points="294.5,-204 294.5,-242 354.5,-242 354.5,-204 294.5,-204"/>
<polygon fill="none" stroke="black" points="294.5,-204 294.5,-242 354.5,-242 354.5,-204 294.5,-204"/>
<text text-anchor="start" x="298.5" y="-226.8" font-family="Times,serif" font-size="14.00"> 2277.75 </text>
<text text-anchor="start" x="300.5" y="-211.8" font-family="Times,serif" font-size="14.00"> (MB/s) </text>
<polygon fill="#ffffae" stroke="none" points="354.5,-204 354.5,-242 394.5,-242 394.5,-204 354.5,-204"/>
<polygon fill="none" stroke="black" points="354.5,-204 354.5,-242 394.5,-242 394.5,-204 354.5,-204"/>
<text text-anchor="start" x="358.5" y="-226.8" font-family="Times,serif" font-size="14.00"> 3.53 </text>
<text text-anchor="start" x="359.5" y="-211.8" font-family="Times,serif" font-size="14.00"> (ms)</text>
</g>
<!-- LRN_2&#45;&gt;Relu_3 -->
<g id="edge10" class="edge"><title>LRN_2&#45;&gt;Relu_3</title>
<path fill="none" stroke="black" d="M306.5,-327.867C306.5,-319.634 306.5,-310.957 306.5,-302.465"/>
<polygon fill="black" stroke="black" points="310,-302.241 306.5,-292.241 303,-302.241 310,-302.241"/>
</g>
<!-- output -->
<g id="node13" class="node"><title>output</title>
<polygon fill="#a3a3a3" stroke="none" points="220.5,-137 220.5,-160 392.5,-160 392.5,-137 220.5,-137"/>
<polygon fill="none" stroke="black" points="220.5,-137 220.5,-160 392.5,-160 392.5,-137 220.5,-137"/>
<text text-anchor="start" x="289" y="-144.8" font-family="Times,serif" font-size="14.00">output</text>
<polygon fill="#dddddd" stroke="none" points="220.5,-114 220.5,-137 392.5,-137 392.5,-114 220.5,-114"/>
<polygon fill="none" stroke="black" points="220.5,-114 220.5,-137 392.5,-137 392.5,-114 220.5,-114"/>
<text text-anchor="start" x="284" y="-121.8" font-family="Times,serif" font-size="14.00">(1, 1, 1)</text>
<polygon fill="#b0f0ee" stroke="none" points="220.5,-76 220.5,-114 296.5,-114 296.5,-76 220.5,-76"/>
<polygon fill="none" stroke="black" points="220.5,-76 220.5,-114 296.5,-114 296.5,-76 220.5,-76"/>
<text text-anchor="start" x="229" y="-98.8" font-family="Times,serif" font-size="14.00"> 0.000512 </text>
<text text-anchor="start" x="224.5" y="-83.8" font-family="Times,serif" font-size="14.00"> (MFLOPs) </text>
<polygon fill="#ffe5fc" stroke="none" points="296.5,-76 296.5,-114 352.5,-114 352.5,-76 296.5,-76"/>
<polygon fill="none" stroke="black" points="296.5,-76 296.5,-114 352.5,-114 352.5,-76 296.5,-76"/>
<text text-anchor="start" x="305" y="-98.8" font-family="Times,serif" font-size="14.00"> 30.60 </text>
<text text-anchor="start" x="300.5" y="-83.8" font-family="Times,serif" font-size="14.00"> (MB/s) </text>
<polygon fill="#ffffcc" stroke="none" points="352.5,-76 352.5,-114 392.5,-114 392.5,-76 352.5,-76"/>
<polygon fill="none" stroke="black" points="352.5,-76 352.5,-114 392.5,-114 392.5,-76 352.5,-76"/>
<text text-anchor="start" x="356.5" y="-98.8" font-family="Times,serif" font-size="14.00"> 0.03 </text>
<text text-anchor="start" x="357.5" y="-83.8" font-family="Times,serif" font-size="14.00"> (ms)</text>
</g>
<!-- Relu_3&#45;&gt;output -->
<g id="edge11" class="edge"><title>Relu_3&#45;&gt;output</title>
<path fill="none" stroke="black" d="M306.5,-199.867C306.5,-191.634 306.5,-182.957 306.5,-174.465"/>
<polygon fill="black" stroke="black" points="310,-174.241 306.5,-164.241 303,-174.241 310,-174.241"/>
</g>
<!-- Output -->
<g id="node14" class="node"><title>Output</title>
<ellipse fill="none" stroke="black" cx="306.5" cy="-18" rx="66.8882" ry="18"/>
<text text-anchor="middle" x="306.5" y="-14.3" font-family="Times,serif" font-size="14.00">output: [1, 1, 1]</text>
</g>
<!-- output&#45;&gt;Output -->
<g id="edge12" class="edge"><title>output&#45;&gt;Output</title>
<path fill="none" stroke="black" d="M306.5,-71.7292C306.5,-63.0404 306.5,-54.1943 306.5,-46.2922"/>
<polygon fill="black" stroke="black" points="310,-46.2052 306.5,-36.2053 303,-46.2053 310,-46.2052"/>
</g>
<!-- Summary -->
<g id="node15" class="node"><title>Summary</title>
<polygon fill="#c60000" stroke="none" points="404.5,-1575.5 404.5,-1598.5 589.5,-1598.5 589.5,-1575.5 404.5,-1575.5"/>
<polygon fill="none" stroke="black" points="404.5,-1575.5 404.5,-1598.5 589.5,-1598.5 589.5,-1575.5 404.5,-1575.5"/>
<text text-anchor="start" x="469.5" y="-1583.3" font-family="Times,serif" font-size="14.00">Summary</text>
<polygon fill="#e2e2e2" stroke="none" points="404.5,-1552.5 404.5,-1575.5 589.5,-1575.5 589.5,-1552.5 404.5,-1552.5"/>
<polygon fill="none" stroke="black" points="404.5,-1552.5 404.5,-1575.5 589.5,-1575.5 589.5,-1552.5 404.5,-1552.5"/>
<text text-anchor="start" x="447" y="-1560.3" font-family="Times,serif" font-size="14.00">1 SHV Processors</text>
<polygon fill="#dadada" stroke="none" points="404.5,-1529.5 404.5,-1552.5 589.5,-1552.5 589.5,-1529.5 404.5,-1529.5"/>
<polygon fill="none" stroke="black" points="404.5,-1529.5 404.5,-1552.5 589.5,-1552.5 589.5,-1529.5 404.5,-1529.5"/>
<text text-anchor="start" x="429.5" y="-1537.3" font-family="Times,serif" font-size="14.00">Inference time 62.15 ms</text>
<polygon fill="#e2e2e2" stroke="none" points="404.5,-1506.5 404.5,-1529.5 589.5,-1529.5 589.5,-1506.5 404.5,-1506.5"/>
<polygon fill="none" stroke="black" points="404.5,-1506.5 404.5,-1529.5 589.5,-1529.5 589.5,-1506.5 404.5,-1506.5"/>
<text text-anchor="start" x="423" y="-1514.3" font-family="Times,serif" font-size="14.00">Bandwidth 188.91 MB/sec</text>
<polygon fill="#dadada" stroke="none" points="404.5,-1483.5 404.5,-1506.5 589.5,-1506.5 589.5,-1483.5 404.5,-1483.5"/>
<polygon fill="none" stroke="black" points="404.5,-1483.5 404.5,-1506.5 589.5,-1506.5 589.5,-1483.5 404.5,-1483.5"/>
<text text-anchor="start" x="408.5" y="-1491.3" font-family="Times,serif" font-size="14.00">This network is Compute bound</text>
</g>
</g>
</svg>
