<?xml version="1.0" encoding="UTF-8" standalone="no"?>
<!DOCTYPE svg PUBLIC "-//W3C//DTD SVG 1.1//EN"
 "http://www.w3.org/Graphics/SVG/1.1/DTD/svg11.dtd">
<!-- Generated by graphviz version 2.38.0 (20140413.2041)
 -->
<!-- Title: output Pages: 1 -->
<svg width="605pt" height="2251pt"
 viewBox="0.00 0.00 605.00 2251.00" xmlns="http://www.w3.org/2000/svg" xmlns:xlink="http://www.w3.org/1999/xlink">
<g id="graph0" class="graph" transform="scale(1 1) rotate(0) translate(4 2247)">
<title>output</title>
<polygon fill="white" stroke="none" points="-4,4 -4,-2247 601,-2247 601,4 -4,4"/>
<!-- Legend -->
<g id="node1" class="node"><title>Legend</title>
<polygon fill="#e0e0e0" stroke="none" points="8.5,-2188.5 8.5,-2211.5 209.5,-2211.5 209.5,-2188.5 8.5,-2188.5"/>
<polygon fill="none" stroke="black" points="8.5,-2188.5 8.5,-2211.5 209.5,-2211.5 209.5,-2188.5 8.5,-2188.5"/>
<text text-anchor="start" x="93" y="-2196.3" font-family="Times,serif" font-size="14.00">Layer</text>
<polygon fill="#88ffff" stroke="none" points="8.5,-2150.5 8.5,-2188.5 89.5,-2188.5 89.5,-2150.5 8.5,-2150.5"/>
<polygon fill="none" stroke="black" points="8.5,-2150.5 8.5,-2188.5 89.5,-2188.5 89.5,-2150.5 8.5,-2150.5"/>
<text text-anchor="start" x="12.5" y="-2173.3" font-family="Times,serif" font-size="14.00"> Complexity </text>
<text text-anchor="start" x="15" y="-2158.3" font-family="Times,serif" font-size="14.00"> (MFLOPs) </text>
<polygon fill="#ff88ff" stroke="none" points="89.5,-2150.5 89.5,-2188.5 164.5,-2188.5 164.5,-2150.5 89.5,-2150.5"/>
<polygon fill="none" stroke="black" points="89.5,-2150.5 89.5,-2188.5 164.5,-2188.5 164.5,-2150.5 89.5,-2150.5"/>
<text text-anchor="start" x="93.5" y="-2173.3" font-family="Times,serif" font-size="14.00"> Bandwidth </text>
<text text-anchor="start" x="103" y="-2158.3" font-family="Times,serif" font-size="14.00"> (MB/s) </text>
<polygon fill="#ffff88" stroke="none" points="164.5,-2150.5 164.5,-2188.5 209.5,-2188.5 209.5,-2150.5 164.5,-2150.5"/>
<polygon fill="none" stroke="black" points="164.5,-2150.5 164.5,-2188.5 209.5,-2188.5 209.5,-2150.5 164.5,-2150.5"/>
<text text-anchor="start" x="168.5" y="-2173.3" font-family="Times,serif" font-size="14.00"> Time </text>
<text text-anchor="start" x="172" y="-2158.3" font-family="Times,serif" font-size="14.00"> (ms)</text>
</g>
<!-- Input -->
<g id="node2" class="node"><title>Input</title>
<ellipse fill="none" stroke="black" cx="306.5" cy="-2181.5" rx="71.4873" ry="18"/>
<text text-anchor="middle" x="306.5" y="-2177.8" font-family="Times,serif" font-size="14.00">input: (64, 64, 3)</text>
</g>
<!-- BiasAdd -->
<g id="node3" class="node"><title>BiasAdd</title>
<polygon fill="#a3a3a3" stroke="none" points="220.5,-2057 220.5,-2080 392.5,-2080 392.5,-2057 220.5,-2057"/>
<polygon fill="none" stroke="black" points="220.5,-2057 220.5,-2080 392.5,-2080 392.5,-2057 220.5,-2057"/>
<text text-anchor="start" x="282.5" y="-2064.8" font-family="Times,serif" font-size="14.00">BiasAdd</text>
<polygon fill="#dddddd" stroke="none" points="220.5,-2034 220.5,-2057 392.5,-2057 392.5,-2034 220.5,-2034"/>
<polygon fill="none" stroke="black" points="220.5,-2034 220.5,-2057 392.5,-2057 392.5,-2034 220.5,-2034"/>
<text text-anchor="start" x="274" y="-2041.8" font-family="Times,serif" font-size="14.00">(64, 64, 64)</text>
<polygon fill="#a4eeeb" stroke="none" points="220.5,-1996 220.5,-2034 296.5,-2034 296.5,-1996 220.5,-1996"/>
<polygon fill="none" stroke="black" points="220.5,-1996 220.5,-2034 296.5,-2034 296.5,-1996 220.5,-1996"/>
<text text-anchor="start" x="225.5" y="-2018.8" font-family="Times,serif" font-size="14.00"> 14.155776 </text>
<text text-anchor="start" x="224.5" y="-2003.8" font-family="Times,serif" font-size="14.00"> (MFLOPs) </text>
<polygon fill="#fde2fa" stroke="none" points="296.5,-1996 296.5,-2034 352.5,-2034 352.5,-1996 296.5,-1996"/>
<polygon fill="none" stroke="black" points="296.5,-1996 296.5,-2034 352.5,-2034 352.5,-1996 296.5,-1996"/>
<text text-anchor="start" x="305" y="-2018.8" font-family="Times,serif" font-size="14.00"> 33.19 </text>
<text text-anchor="start" x="300.5" y="-2003.8" font-family="Times,serif" font-size="14.00"> (MB/s) </text>
<polygon fill="#ffff95" stroke="none" points="352.5,-1996 352.5,-2034 392.5,-2034 392.5,-1996 352.5,-1996"/>
<polygon fill="none" stroke="black" points="352.5,-1996 352.5,-2034 392.5,-2034 392.5,-1996 352.5,-1996"/>
<text text-anchor="start" x="356.5" y="-2018.8" font-family="Times,serif" font-size="14.00"> 6.49 </text>
<text text-anchor="start" x="357.5" y="-2003.8" font-family="Times,serif" font-size="14.00"> (ms)</text>
</g>
<!-- Input&#45;&gt;BiasAdd -->
<g id="edge1" class="edge"><title>Input&#45;&gt;BiasAdd</title>
<path fill="none" stroke="black" d="M306.5,-2163.43C306.5,-2146.25 306.5,-2118.81 306.5,-2094.07"/>
<polygon fill="black" stroke="black" points="310,-2094.03 306.5,-2084.03 303,-2094.03 310,-2094.03"/>
</g>
<!-- Tanh -->
<g id="node4" class="node"><title>Tanh</title>
<polygon fill="#a3a3a3" stroke="none" points="220.5,-1929 220.5,-1952 392.5,-1952 392.5,-1929 220.5,-1929"/>
<polygon fill="none" stroke="black" points="220.5,-1929 220.5,-1952 392.5,-1952 392.5,-1929 220.5,-1929"/>
<text text-anchor="start" x="292.5" y="-1936.8" font-family="Times,serif" font-size="14.00">Tanh</text>
<polygon fill="#dddddd" stroke="none" points="220.5,-1906 220.5,-1929 392.5,-1929 392.5,-1906 220.5,-1906"/>
<polygon fill="none" stroke="black" points="220.5,-1906 220.5,-1929 392.5,-1929 392.5,-1906 220.5,-1906"/>
<text text-anchor="start" x="274" y="-1913.8" font-family="Times,serif" font-size="14.00">(64, 64, 64)</text>
<polygon fill="#b1f1ef" stroke="none" points="220.5,-1868 220.5,-1906 296.5,-1906 296.5,-1868 220.5,-1868"/>
<polygon fill="none" stroke="black" points="220.5,-1868 220.5,-1906 296.5,-1906 296.5,-1868 220.5,-1868"/>
<text text-anchor="start" x="246" y="-1890.8" font-family="Times,serif" font-size="14.00"> 0.0 </text>
<text text-anchor="start" x="224.5" y="-1875.8" font-family="Times,serif" font-size="14.00"> (MFLOPs) </text>
<polygon fill="#fadaf7" stroke="none" points="296.5,-1868 296.5,-1906 352.5,-1906 352.5,-1868 296.5,-1868"/>
<polygon fill="none" stroke="black" points="296.5,-1868 296.5,-1906 352.5,-1906 352.5,-1868 296.5,-1868"/>
<text text-anchor="start" x="301.5" y="-1890.8" font-family="Times,serif" font-size="14.00"> 121.50 </text>
<text text-anchor="start" x="300.5" y="-1875.8" font-family="Times,serif" font-size="14.00"> (MB/s) </text>
<polygon fill="#ffffa9" stroke="none" points="352.5,-1868 352.5,-1906 392.5,-1906 392.5,-1868 352.5,-1868"/>
<polygon fill="none" stroke="black" points="352.5,-1868 352.5,-1906 392.5,-1906 392.5,-1868 352.5,-1868"/>
<text text-anchor="start" x="356.5" y="-1890.8" font-family="Times,serif" font-size="14.00"> 4.12 </text>
<text text-anchor="start" x="357.5" y="-1875.8" font-family="Times,serif" font-size="14.00"> (ms)</text>
</g>
<!-- BiasAdd&#45;&gt;Tanh -->
<g id="edge2" class="edge"><title>BiasAdd&#45;&gt;Tanh</title>
<path fill="none" stroke="black" d="M306.5,-1991.87C306.5,-1983.63 306.5,-1974.96 306.5,-1966.47"/>
<polygon fill="black" stroke="black" points="310,-1966.24 306.5,-1956.24 303,-1966.24 310,-1966.24"/>
</g>
<!-- MaxPool -->
<g id="node5" class="node"><title>MaxPool</title>
<polygon fill="#a3a3a3" stroke="none" points="220.5,-1801 220.5,-1824 392.5,-1824 392.5,-1801 220.5,-1801"/>
<polygon fill="none" stroke="black" points="220.5,-1801 220.5,-1824 392.5,-1824 392.5,-1801 220.5,-1801"/>
<text text-anchor="start" x="281" y="-1808.8" font-family="Times,serif" font-size="14.00">MaxPool</text>
<polygon fill="#dddddd" stroke="none" points="220.5,-1778 220.5,-1801 392.5,-1801 392.5,-1778 220.5,-1778"/>
<polygon fill="none" stroke="black" points="220.5,-1778 220.5,-1801 392.5,-1801 392.5,-1778 220.5,-1778"/>
<text text-anchor="start" x="274" y="-1785.8" font-family="Times,serif" font-size="14.00">(64, 32, 32)</text>
<polygon fill="#b0f0ee" stroke="none" points="220.5,-1740 220.5,-1778 296.5,-1778 296.5,-1740 220.5,-1740"/>
<polygon fill="none" stroke="black" points="220.5,-1740 220.5,-1778 296.5,-1778 296.5,-1740 220.5,-1740"/>
<text text-anchor="start" x="229" y="-1762.8" font-family="Times,serif" font-size="14.00"> 0.262144 </text>
<text text-anchor="start" x="224.5" y="-1747.8" font-family="Times,serif" font-size="14.00"> (MFLOPs) </text>
<polygon fill="#eeb9e7" stroke="none" points="296.5,-1740 296.5,-1778 352.5,-1778 352.5,-1740 296.5,-1740"/>
<polygon fill="none" stroke="black" points="296.5,-1740 296.5,-1778 352.5,-1778 352.5,-1740 296.5,-1740"/>
<text text-anchor="start" x="301.5" y="-1762.8" font-family="Times,serif" font-size="14.00"> 488.44 </text>
<text text-anchor="start" x="300.5" y="-1747.8" font-family="Times,serif" font-size="14.00"> (MB/s) </text>
<polygon fill="#ffffc3" stroke="none" points="352.5,-1740 352.5,-1778 392.5,-1778 392.5,-1740 352.5,-1740"/>
<polygon fill="none" stroke="black" points="352.5,-1740 352.5,-1778 392.5,-1778 392.5,-1740 352.5,-1740"/>
<text text-anchor="start" x="356.5" y="-1762.8" font-family="Times,serif" font-size="14.00"> 1.02 </text>
<text text-anchor="start" x="357.5" y="-1747.8" font-family="Times,serif" font-size="14.00"> (ms)</text>
</g>
<!-- Tanh&#45;&gt;MaxPool -->
<g id="edge3" class="edge"><title>Tanh&#45;&gt;MaxPool</title>
<path fill="none" stroke="black" d="M306.5,-1863.87C306.5,-1855.63 306.5,-1846.96 306.5,-1838.47"/>
<polygon fill="black" stroke="black" points="310,-1838.24 306.5,-1828.24 303,-1838.24 310,-1838.24"/>
</g>
<!-- LRN -->
<g id="node6" class="node"><title>LRN</title>
<polygon fill="#a3a3a3" stroke="none" points="220.5,-1673 220.5,-1696 392.5,-1696 392.5,-1673 220.5,-1673"/>
<polygon fill="none" stroke="black" points="220.5,-1673 220.5,-1696 392.5,-1696 392.5,-1673 220.5,-1673"/>
<text text-anchor="start" x="292.5" y="-1680.8" font-family="Times,serif" font-size="14.00">LRN</text>
<polygon fill="#dddddd" stroke="none" points="220.5,-1650 220.5,-1673 392.5,-1673 392.5,-1650 220.5,-1650"/>
<polygon fill="none" stroke="black" points="220.5,-1650 220.5,-1673 392.5,-1673 392.5,-1650 220.5,-1650"/>
<text text-anchor="start" x="274" y="-1657.8" font-family="Times,serif" font-size="14.00">(64, 32, 32)</text>
<polygon fill="#b1f1ef" stroke="none" points="220.5,-1612 220.5,-1650 296.5,-1650 296.5,-1612 220.5,-1612"/>
<polygon fill="none" stroke="black" points="220.5,-1612 220.5,-1650 296.5,-1650 296.5,-1612 220.5,-1612"/>
<text text-anchor="start" x="246" y="-1634.8" font-family="Times,serif" font-size="14.00"> 0.0 </text>
<text text-anchor="start" x="224.5" y="-1619.8" font-family="Times,serif" font-size="14.00"> (MFLOPs) </text>
<polygon fill="#fcdef8" stroke="none" points="296.5,-1612 296.5,-1650 352.5,-1650 352.5,-1612 296.5,-1612"/>
<polygon fill="none" stroke="black" points="296.5,-1612 296.5,-1650 352.5,-1650 352.5,-1612 296.5,-1612"/>
<text text-anchor="start" x="305" y="-1634.8" font-family="Times,serif" font-size="14.00"> 76.78 </text>
<text text-anchor="start" x="300.5" y="-1619.8" font-family="Times,serif" font-size="14.00"> (MB/s) </text>
<polygon fill="#ffffbe" stroke="none" points="352.5,-1612 352.5,-1650 392.5,-1650 392.5,-1612 352.5,-1612"/>
<polygon fill="none" stroke="black" points="352.5,-1612 352.5,-1650 392.5,-1650 392.5,-1612 352.5,-1612"/>
<text text-anchor="start" x="356.5" y="-1634.8" font-family="Times,serif" font-size="14.00"> 1.63 </text>
<text text-anchor="start" x="357.5" y="-1619.8" font-family="Times,serif" font-size="14.00"> (ms)</text>
</g>
<!-- MaxPool&#45;&gt;LRN -->
<g id="edge4" class="edge"><title>MaxPool&#45;&gt;LRN</title>
<path fill="none" stroke="black" d="M306.5,-1735.87C306.5,-1727.63 306.5,-1718.96 306.5,-1710.47"/>
<polygon fill="black" stroke="black" points="310,-1710.24 306.5,-1700.24 303,-1710.24 310,-1710.24"/>
</g>
<!-- BiasAdd_1 -->
<g id="node7" class="node"><title>BiasAdd_1</title>
<polygon fill="#a3a3a3" stroke="none" points="214.5,-1545 214.5,-1568 398.5,-1568 398.5,-1545 214.5,-1545"/>
<polygon fill="none" stroke="black" points="214.5,-1545 214.5,-1568 398.5,-1568 398.5,-1545 214.5,-1545"/>
<text text-anchor="start" x="276" y="-1552.8" font-family="Times,serif" font-size="14.00">BiasAdd_1</text>
<polygon fill="#dddddd" stroke="none" points="214.5,-1522 214.5,-1545 398.5,-1545 398.5,-1522 214.5,-1522"/>
<polygon fill="none" stroke="black" points="214.5,-1522 214.5,-1545 398.5,-1545 398.5,-1522 214.5,-1522"/>
<text text-anchor="start" x="270.5" y="-1529.8" font-family="Times,serif" font-size="14.00">(128, 32, 32)</text>
<polygon fill="#2ed1c6" stroke="none" points="214.5,-1484 214.5,-1522 295.5,-1522 295.5,-1484 214.5,-1484"/>
<polygon fill="none" stroke="black" points="214.5,-1484 214.5,-1522 295.5,-1522 295.5,-1484 214.5,-1484"/>
<text text-anchor="start" x="218.5" y="-1506.8" font-family="Times,serif" font-size="14.00"> 150.994944 </text>
<text text-anchor="start" x="221" y="-1491.8" font-family="Times,serif" font-size="14.00"> (MFLOPs) </text>
<polygon fill="#fde0f9" stroke="none" points="295.5,-1484 295.5,-1522 351.5,-1522 351.5,-1484 295.5,-1484"/>
<polygon fill="none" stroke="black" points="295.5,-1484 295.5,-1522 351.5,-1522 351.5,-1484 295.5,-1484"/>
<text text-anchor="start" x="304" y="-1506.8" font-family="Times,serif" font-size="14.00"> 55.32 </text>
<text text-anchor="start" x="299.5" y="-1491.8" font-family="Times,serif" font-size="14.00"> (MB/s) </text>
<polygon fill="#ffff0c" stroke="none" points="351.5,-1484 351.5,-1522 398.5,-1522 398.5,-1484 351.5,-1484"/>
<polygon fill="none" stroke="black" points="351.5,-1484 351.5,-1522 398.5,-1522 398.5,-1484 351.5,-1484"/>
<text text-anchor="start" x="355.5" y="-1506.8" font-family="Times,serif" font-size="14.00"> 22.92 </text>
<text text-anchor="start" x="360" y="-1491.8" font-family="Times,serif" font-size="14.00"> (ms)</text>
</g>
<!-- LRN&#45;&gt;BiasAdd_1 -->
<g id="edge5" class="edge"><title>LRN&#45;&gt;BiasAdd_1</title>
<path fill="none" stroke="black" d="M306.5,-1607.87C306.5,-1599.63 306.5,-1590.96 306.5,-1582.47"/>
<polygon fill="black" stroke="black" points="310,-1582.24 306.5,-1572.24 303,-1582.24 310,-1582.24"/>
</g>
<!-- Tanh_1 -->
<g id="node8" class="node"><title>Tanh_1</title>
<polygon fill="#a3a3a3" stroke="none" points="220.5,-1417 220.5,-1440 392.5,-1440 392.5,-1417 220.5,-1417"/>
<polygon fill="none" stroke="black" points="220.5,-1417 220.5,-1440 392.5,-1440 392.5,-1417 220.5,-1417"/>
<text text-anchor="start" x="285.5" y="-1424.8" font-family="Times,serif" font-size="14.00">Tanh_1</text>
<polygon fill="#dddddd" stroke="none" points="220.5,-1394 220.5,-1417 392.5,-1417 392.5,-1394 220.5,-1394"/>
<polygon fill="none" stroke="black" points="220.5,-1394 220.5,-1417 392.5,-1417 392.5,-1394 220.5,-1394"/>
<text text-anchor="start" x="274" y="-1401.8" font-family="Times,serif" font-size="14.00">(32, 32, 32)</text>
<polygon fill="#b1f1ef" stroke="none" points="220.5,-1356 220.5,-1394 296.5,-1394 296.5,-1356 220.5,-1356"/>
<polygon fill="none" stroke="black" points="220.5,-1356 220.5,-1394 296.5,-1394 296.5,-1356 220.5,-1356"/>
<text text-anchor="start" x="246" y="-1378.8" font-family="Times,serif" font-size="14.00"> 0.0 </text>
<text text-anchor="start" x="224.5" y="-1363.8" font-family="Times,serif" font-size="14.00"> (MFLOPs) </text>
<polygon fill="#fadaf7" stroke="none" points="296.5,-1356 296.5,-1394 352.5,-1394 352.5,-1356 296.5,-1356"/>
<polygon fill="none" stroke="black" points="296.5,-1356 296.5,-1394 352.5,-1394 352.5,-1356 296.5,-1356"/>
<text text-anchor="start" x="301.5" y="-1378.8" font-family="Times,serif" font-size="14.00"> 120.98 </text>
<text text-anchor="start" x="300.5" y="-1363.8" font-family="Times,serif" font-size="14.00"> (MB/s) </text>
<polygon fill="#ffffba" stroke="none" points="352.5,-1356 352.5,-1394 392.5,-1394 392.5,-1356 352.5,-1356"/>
<polygon fill="none" stroke="black" points="352.5,-1356 352.5,-1394 392.5,-1394 392.5,-1356 352.5,-1356"/>
<text text-anchor="start" x="356.5" y="-1378.8" font-family="Times,serif" font-size="14.00"> 2.07 </text>
<text text-anchor="start" x="357.5" y="-1363.8" font-family="Times,serif" font-size="14.00"> (ms)</text>
</g>
<!-- BiasAdd_1&#45;&gt;Tanh_1 -->
<g id="edge6" class="edge"><title>BiasAdd_1&#45;&gt;Tanh_1</title>
<path fill="none" stroke="black" d="M306.5,-1479.87C306.5,-1471.63 306.5,-1462.96 306.5,-1454.47"/>
<polygon fill="black" stroke="black" points="310,-1454.24 306.5,-1444.24 303,-1454.24 310,-1454.24"/>
</g>
<!-- MaxPool_1 -->
<g id="node9" class="node"><title>MaxPool_1</title>
<polygon fill="#a3a3a3" stroke="none" points="218.5,-1289 218.5,-1312 394.5,-1312 394.5,-1289 218.5,-1289"/>
<polygon fill="none" stroke="black" points="218.5,-1289 218.5,-1312 394.5,-1312 394.5,-1289 218.5,-1289"/>
<text text-anchor="start" x="274.5" y="-1296.8" font-family="Times,serif" font-size="14.00">MaxPool_1</text>
<polygon fill="#dddddd" stroke="none" points="218.5,-1266 218.5,-1289 394.5,-1289 394.5,-1266 218.5,-1266"/>
<polygon fill="none" stroke="black" points="218.5,-1266 218.5,-1289 394.5,-1289 394.5,-1266 218.5,-1266"/>
<text text-anchor="start" x="270.5" y="-1273.8" font-family="Times,serif" font-size="14.00">(128, 16, 16)</text>
<polygon fill="#b0f0ee" stroke="none" points="218.5,-1228 218.5,-1266 294.5,-1266 294.5,-1228 218.5,-1228"/>
<polygon fill="none" stroke="black" points="218.5,-1228 218.5,-1266 294.5,-1266 294.5,-1228 218.5,-1228"/>
<text text-anchor="start" x="227" y="-1250.8" font-family="Times,serif" font-size="14.00"> 0.131072 </text>
<text text-anchor="start" x="222.5" y="-1235.8" font-family="Times,serif" font-size="14.00"> (MFLOPs) </text>
<polygon fill="#cf65c1" stroke="none" points="294.5,-1228 294.5,-1266 354.5,-1266 354.5,-1228 294.5,-1228"/>
<polygon fill="none" stroke="black" points="294.5,-1228 294.5,-1266 354.5,-1266 354.5,-1228 294.5,-1228"/>
<text text-anchor="start" x="298.5" y="-1250.8" font-family="Times,serif" font-size="14.00"> 1423.92 </text>
<text text-anchor="start" x="300.5" y="-1235.8" font-family="Times,serif" font-size="14.00"> (MB/s) </text>
<polygon fill="#ffffca" stroke="none" points="354.5,-1228 354.5,-1266 394.5,-1266 394.5,-1228 354.5,-1228"/>
<polygon fill="none" stroke="black" points="354.5,-1228 354.5,-1266 394.5,-1266 394.5,-1228 354.5,-1228"/>
<text text-anchor="start" x="358.5" y="-1250.8" font-family="Times,serif" font-size="14.00"> 0.18 </text>
<text text-anchor="start" x="359.5" y="-1235.8" font-family="Times,serif" font-size="14.00"> (ms)</text>
</g>
<!-- Tanh_1&#45;&gt;MaxPool_1 -->
<g id="edge7" class="edge"><title>Tanh_1&#45;&gt;MaxPool_1</title>
<path fill="none" stroke="black" d="M306.5,-1351.87C306.5,-1343.63 306.5,-1334.96 306.5,-1326.47"/>
<polygon fill="black" stroke="black" points="310,-1326.24 306.5,-1316.24 303,-1326.24 310,-1326.24"/>
</g>
<!-- LRN_1 -->
<g id="node10" class="node"><title>LRN_1</title>
<polygon fill="#a3a3a3" stroke="none" points="220.5,-1161 220.5,-1184 392.5,-1184 392.5,-1161 220.5,-1161"/>
<polygon fill="none" stroke="black" points="220.5,-1161 220.5,-1184 392.5,-1184 392.5,-1161 220.5,-1161"/>
<text text-anchor="start" x="286" y="-1168.8" font-family="Times,serif" font-size="14.00">LRN_1</text>
<polygon fill="#dddddd" stroke="none" points="220.5,-1138 220.5,-1161 392.5,-1161 392.5,-1138 220.5,-1138"/>
<polygon fill="none" stroke="black" points="220.5,-1138 220.5,-1161 392.5,-1161 392.5,-1138 220.5,-1138"/>
<text text-anchor="start" x="270.5" y="-1145.8" font-family="Times,serif" font-size="14.00">(128, 16, 16)</text>
<polygon fill="#b1f1ef" stroke="none" points="220.5,-1100 220.5,-1138 296.5,-1138 296.5,-1100 220.5,-1100"/>
<polygon fill="none" stroke="black" points="220.5,-1100 220.5,-1138 296.5,-1138 296.5,-1100 220.5,-1100"/>
<text text-anchor="start" x="246" y="-1122.8" font-family="Times,serif" font-size="14.00"> 0.0 </text>
<text text-anchor="start" x="224.5" y="-1107.8" font-family="Times,serif" font-size="14.00"> (MFLOPs) </text>
<polygon fill="#fcddf8" stroke="none" points="296.5,-1100 296.5,-1138 352.5,-1138 352.5,-1100 296.5,-1100"/>
<polygon fill="none" stroke="black" points="296.5,-1100 296.5,-1138 352.5,-1138 352.5,-1100 296.5,-1100"/>
<text text-anchor="start" x="305" y="-1122.8" font-family="Times,serif" font-size="14.00"> 81.01 </text>
<text text-anchor="start" x="300.5" y="-1107.8" font-family="Times,serif" font-size="14.00"> (MB/s) </text>
<polygon fill="#ffffc5" stroke="none" points="352.5,-1100 352.5,-1138 392.5,-1138 392.5,-1100 352.5,-1100"/>
<polygon fill="none" stroke="black" points="352.5,-1100 352.5,-1138 392.5,-1138 392.5,-1100 352.5,-1100"/>
<text text-anchor="start" x="356.5" y="-1122.8" font-family="Times,serif" font-size="14.00"> 0.77 </text>
<text text-anchor="start" x="357.5" y="-1107.8" font-family="Times,serif" font-size="14.00"> (ms)</text>
</g>
<!-- MaxPool_1&#45;&gt;LRN_1 -->
<g id="edge8" class="edge"><title>MaxPool_1&#45;&gt;LRN_1</title>
<path fill="none" stroke="black" d="M306.5,-1223.87C306.5,-1215.63 306.5,-1206.96 306.5,-1198.47"/>
<polygon fill="black" stroke="black" points="310,-1198.24 306.5,-1188.24 303,-1198.24 310,-1198.24"/>
</g>
<!-- BiasAdd_2 -->
<g id="node11" class="node"><title>BiasAdd_2</title>
<polygon fill="#a3a3a3" stroke="none" points="214.5,-1033 214.5,-1056 398.5,-1056 398.5,-1033 214.5,-1033"/>
<polygon fill="none" stroke="black" points="214.5,-1033 214.5,-1056 398.5,-1056 398.5,-1033 214.5,-1033"/>
<text text-anchor="start" x="276" y="-1040.8" font-family="Times,serif" font-size="14.00">BiasAdd_2</text>
<polygon fill="#dddddd" stroke="none" points="214.5,-1010 214.5,-1033 398.5,-1033 398.5,-1010 214.5,-1010"/>
<polygon fill="none" stroke="black" points="214.5,-1010 214.5,-1033 398.5,-1033 398.5,-1010 214.5,-1010"/>
<text text-anchor="start" x="270.5" y="-1017.8" font-family="Times,serif" font-size="14.00">(256, 16, 16)</text>
<polygon fill="#2ed1c6" stroke="none" points="214.5,-972 214.5,-1010 295.5,-1010 295.5,-972 214.5,-972"/>
<polygon fill="none" stroke="black" points="214.5,-972 214.5,-1010 295.5,-1010 295.5,-972 214.5,-972"/>
<text text-anchor="start" x="218.5" y="-994.8" font-family="Times,serif" font-size="14.00"> 150.994944 </text>
<text text-anchor="start" x="221" y="-979.8" font-family="Times,serif" font-size="14.00"> (MFLOPs) </text>
<polygon fill="#fde0fa" stroke="none" points="295.5,-972 295.5,-1010 351.5,-1010 351.5,-972 295.5,-972"/>
<polygon fill="none" stroke="black" points="295.5,-972 295.5,-1010 351.5,-1010 351.5,-972 295.5,-972"/>
<text text-anchor="start" x="304" y="-994.8" font-family="Times,serif" font-size="14.00"> 46.26 </text>
<text text-anchor="start" x="299.5" y="-979.8" font-family="Times,serif" font-size="14.00"> (MB/s) </text>
<polygon fill="#ffff00" stroke="none" points="351.5,-972 351.5,-1010 398.5,-1010 398.5,-972 351.5,-972"/>
<polygon fill="none" stroke="black" points="351.5,-972 351.5,-1010 398.5,-1010 398.5,-972 351.5,-972"/>
<text text-anchor="start" x="355.5" y="-994.8" font-family="Times,serif" font-size="14.00"> 24.41 </text>
<text text-anchor="start" x="360" y="-979.8" font-family="Times,serif" font-size="14.00"> (ms)</text>
</g>
<!-- LRN_1&#45;&gt;BiasAdd_2 -->
<g id="edge9" class="edge"><title>LRN_1&#45;&gt;BiasAdd_2</title>
<path fill="none" stroke="black" d="M306.5,-1095.87C306.5,-1087.63 306.5,-1078.96 306.5,-1070.47"/>
<polygon fill="black" stroke="black" points="310,-1070.24 306.5,-1060.24 303,-1070.24 310,-1070.24"/>
</g>
<!-- Tanh_2 -->
<g id="node12" class="node"><title>Tanh_2</title>
<polygon fill="#a3a3a3" stroke="none" points="220.5,-905 220.5,-928 392.5,-928 392.5,-905 220.5,-905"/>
<polygon fill="none" stroke="black" points="220.5,-905 220.5,-928 392.5,-928 392.5,-905 220.5,-905"/>
<text text-anchor="start" x="285.5" y="-912.8" font-family="Times,serif" font-size="14.00">Tanh_2</text>
<polygon fill="#dddddd" stroke="none" points="220.5,-882 220.5,-905 392.5,-905 392.5,-882 220.5,-882"/>
<polygon fill="none" stroke="black" points="220.5,-882 220.5,-905 392.5,-905 392.5,-882 220.5,-882"/>
<text text-anchor="start" x="274" y="-889.8" font-family="Times,serif" font-size="14.00">(16, 16, 16)</text>
<polygon fill="#b1f1ef" stroke="none" points="220.5,-844 220.5,-882 296.5,-882 296.5,-844 220.5,-844"/>
<polygon fill="none" stroke="black" points="220.5,-844 220.5,-882 296.5,-882 296.5,-844 220.5,-844"/>
<text text-anchor="start" x="246" y="-866.8" font-family="Times,serif" font-size="14.00"> 0.0 </text>
<text text-anchor="start" x="224.5" y="-851.8" font-family="Times,serif" font-size="14.00"> (MFLOPs) </text>
<polygon fill="#fadaf7" stroke="none" points="296.5,-844 296.5,-882 352.5,-882 352.5,-844 296.5,-844"/>
<polygon fill="none" stroke="black" points="296.5,-844 296.5,-882 352.5,-882 352.5,-844 296.5,-844"/>
<text text-anchor="start" x="301.5" y="-866.8" font-family="Times,serif" font-size="14.00"> 119.83 </text>
<text text-anchor="start" x="300.5" y="-851.8" font-family="Times,serif" font-size="14.00"> (MB/s) </text>
<polygon fill="#ffffc3" stroke="none" points="352.5,-844 352.5,-882 392.5,-882 392.5,-844 352.5,-844"/>
<polygon fill="none" stroke="black" points="352.5,-844 352.5,-882 392.5,-882 392.5,-844 352.5,-844"/>
<text text-anchor="start" x="356.5" y="-866.8" font-family="Times,serif" font-size="14.00"> 1.04 </text>
<text text-anchor="start" x="357.5" y="-851.8" font-family="Times,serif" font-size="14.00"> (ms)</text>
</g>
<!-- BiasAdd_2&#45;&gt;Tanh_2 -->
<g id="edge10" class="edge"><title>BiasAdd_2&#45;&gt;Tanh_2</title>
<path fill="none" stroke="black" d="M306.5,-967.867C306.5,-959.634 306.5,-950.957 306.5,-942.465"/>
<polygon fill="black" stroke="black" points="310,-942.241 306.5,-932.241 303,-942.241 310,-942.241"/>
</g>
<!-- MaxPool_2 -->
<g id="node13" class="node"><title>MaxPool_2</title>
<polygon fill="#a3a3a3" stroke="none" points="218.5,-777 218.5,-800 394.5,-800 394.5,-777 218.5,-777"/>
<polygon fill="none" stroke="black" points="218.5,-777 218.5,-800 394.5,-800 394.5,-777 218.5,-777"/>
<text text-anchor="start" x="274.5" y="-784.8" font-family="Times,serif" font-size="14.00">MaxPool_2</text>
<polygon fill="#dddddd" stroke="none" points="218.5,-754 218.5,-777 394.5,-777 394.5,-754 218.5,-754"/>
<polygon fill="none" stroke="black" points="218.5,-754 218.5,-777 394.5,-777 394.5,-754 218.5,-754"/>
<text text-anchor="start" x="277.5" y="-761.8" font-family="Times,serif" font-size="14.00">(256, 8, 8)</text>
<polygon fill="#b0f0ee" stroke="none" points="218.5,-716 218.5,-754 294.5,-754 294.5,-716 218.5,-716"/>
<polygon fill="none" stroke="black" points="218.5,-716 218.5,-754 294.5,-754 294.5,-716 218.5,-716"/>
<text text-anchor="start" x="227" y="-738.8" font-family="Times,serif" font-size="14.00"> 0.065536 </text>
<text text-anchor="start" x="222.5" y="-723.8" font-family="Times,serif" font-size="14.00"> (MFLOPs) </text>
<polygon fill="#b1179d" stroke="none" points="294.5,-716 294.5,-754 354.5,-754 354.5,-716 294.5,-716"/>
<polygon fill="none" stroke="black" points="294.5,-716 294.5,-754 354.5,-754 354.5,-716 294.5,-716"/>
<text text-anchor="start" x="298.5" y="-738.8" font-family="Times,serif" font-size="14.00"> 2288.82 </text>
<text text-anchor="start" x="300.5" y="-723.8" font-family="Times,serif" font-size="14.00"> (MB/s) </text>
<polygon fill="#ffffcb" stroke="none" points="354.5,-716 354.5,-754 394.5,-754 394.5,-716 354.5,-716"/>
<polygon fill="none" stroke="black" points="354.5,-716 354.5,-754 394.5,-754 394.5,-716 354.5,-716"/>
<text text-anchor="start" x="358.5" y="-738.8" font-family="Times,serif" font-size="14.00"> 0.05 </text>
<text text-anchor="start" x="359.5" y="-723.8" font-family="Times,serif" font-size="14.00"> (ms)</text>
</g>
<!-- Tanh_2&#45;&gt;MaxPool_2 -->
<g id="edge11" class="edge"><title>Tanh_2&#45;&gt;MaxPool_2</title>
<path fill="none" stroke="black" d="M306.5,-839.867C306.5,-831.634 306.5,-822.957 306.5,-814.465"/>
<polygon fill="black" stroke="black" points="310,-814.241 306.5,-804.241 303,-814.241 310,-814.241"/>
</g>
<!-- LRN_2 -->
<g id="node14" class="node"><title>LRN_2</title>
<polygon fill="#a3a3a3" stroke="none" points="220.5,-649 220.5,-672 392.5,-672 392.5,-649 220.5,-649"/>
<polygon fill="none" stroke="black" points="220.5,-649 220.5,-672 392.5,-672 392.5,-649 220.5,-649"/>
<text text-anchor="start" x="286" y="-656.8" font-family="Times,serif" font-size="14.00">LRN_2</text>
<polygon fill="#dddddd" stroke="none" points="220.5,-626 220.5,-649 392.5,-649 392.5,-626 220.5,-626"/>
<polygon fill="none" stroke="black" points="220.5,-626 220.5,-649 392.5,-649 392.5,-626 220.5,-626"/>
<text text-anchor="start" x="277.5" y="-633.8" font-family="Times,serif" font-size="14.00">(256, 8, 8)</text>
<polygon fill="#b1f1ef" stroke="none" points="220.5,-588 220.5,-626 296.5,-626 296.5,-588 220.5,-588"/>
<polygon fill="none" stroke="black" points="220.5,-588 220.5,-626 296.5,-626 296.5,-588 220.5,-588"/>
<text text-anchor="start" x="246" y="-610.8" font-family="Times,serif" font-size="14.00"> 0.0 </text>
<text text-anchor="start" x="224.5" y="-595.8" font-family="Times,serif" font-size="14.00"> (MFLOPs) </text>
<polygon fill="#fcddf8" stroke="none" points="296.5,-588 296.5,-626 352.5,-626 352.5,-588 296.5,-588"/>
<polygon fill="none" stroke="black" points="296.5,-588 296.5,-626 352.5,-626 352.5,-588 296.5,-588"/>
<text text-anchor="start" x="305" y="-610.8" font-family="Times,serif" font-size="14.00"> 82.62 </text>
<text text-anchor="start" x="300.5" y="-595.8" font-family="Times,serif" font-size="14.00"> (MB/s) </text>
<polygon fill="#ffffc8" stroke="none" points="352.5,-588 352.5,-626 392.5,-626 392.5,-588 352.5,-588"/>
<polygon fill="none" stroke="black" points="352.5,-588 352.5,-626 392.5,-626 392.5,-588 352.5,-588"/>
<text text-anchor="start" x="356.5" y="-610.8" font-family="Times,serif" font-size="14.00"> 0.38 </text>
<text text-anchor="start" x="357.5" y="-595.8" font-family="Times,serif" font-size="14.00"> (ms)</text>
</g>
<!-- MaxPool_2&#45;&gt;LRN_2 -->
<g id="edge12" class="edge"><title>MaxPool_2&#45;&gt;LRN_2</title>
<path fill="none" stroke="black" d="M306.5,-711.867C306.5,-703.634 306.5,-694.957 306.5,-686.465"/>
<polygon fill="black" stroke="black" points="310,-686.241 306.5,-676.241 303,-686.241 310,-686.241"/>
</g>
<!-- add -->
<g id="node15" class="node"><title>add</title>
<polygon fill="#a3a3a3" stroke="none" points="218.5,-521 218.5,-544 394.5,-544 394.5,-521 218.5,-521"/>
<polygon fill="none" stroke="black" points="218.5,-521 218.5,-544 394.5,-544 394.5,-521 218.5,-521"/>
<text text-anchor="start" x="296.5" y="-528.8" font-family="Times,serif" font-size="14.00">add</text>
<polygon fill="#dddddd" stroke="none" points="218.5,-498 218.5,-521 394.5,-521 394.5,-498 218.5,-498"/>
<polygon fill="none" stroke="black" points="218.5,-498 218.5,-521 394.5,-521 394.5,-498 218.5,-498"/>
<text text-anchor="start" x="277.5" y="-505.8" font-family="Times,serif" font-size="14.00">(256, 1, 1)</text>
<polygon fill="#a9efec" stroke="none" points="218.5,-460 218.5,-498 294.5,-498 294.5,-460 218.5,-460"/>
<polygon fill="none" stroke="black" points="218.5,-460 218.5,-498 294.5,-498 294.5,-460 218.5,-460"/>
<text text-anchor="start" x="227" y="-482.8" font-family="Times,serif" font-size="14.00"> 8.388608 </text>
<text text-anchor="start" x="222.5" y="-467.8" font-family="Times,serif" font-size="14.00"> (MFLOPs) </text>
<polygon fill="#b41fa1" stroke="none" points="294.5,-460 294.5,-498 354.5,-498 354.5,-460 294.5,-460"/>
<polygon fill="none" stroke="black" points="294.5,-460 294.5,-498 354.5,-498 354.5,-460 294.5,-460"/>
<text text-anchor="start" x="298.5" y="-482.8" font-family="Times,serif" font-size="14.00"> 2206.04 </text>
<text text-anchor="start" x="300.5" y="-467.8" font-family="Times,serif" font-size="14.00"> (MB/s) </text>
<polygon fill="#ffffad" stroke="none" points="354.5,-460 354.5,-498 394.5,-498 394.5,-460 354.5,-460"/>
<polygon fill="none" stroke="black" points="354.5,-460 354.5,-498 394.5,-498 394.5,-460 354.5,-460"/>
<text text-anchor="start" x="358.5" y="-482.8" font-family="Times,serif" font-size="14.00"> 3.64 </text>
<text text-anchor="start" x="359.5" y="-467.8" font-family="Times,serif" font-size="14.00"> (ms)</text>
</g>
<!-- LRN_2&#45;&gt;add -->
<g id="edge13" class="edge"><title>LRN_2&#45;&gt;add</title>
<path fill="none" stroke="black" d="M306.5,-583.867C306.5,-575.634 306.5,-566.957 306.5,-558.465"/>
<polygon fill="black" stroke="black" points="310,-558.241 306.5,-548.241 303,-558.241 310,-558.241"/>
</g>
<!-- Tanh_3 -->
<g id="node16" class="node"><title>Tanh_3</title>
<polygon fill="#a3a3a3" stroke="none" points="220.5,-393 220.5,-416 392.5,-416 392.5,-393 220.5,-393"/>
<polygon fill="none" stroke="black" points="220.5,-393 220.5,-416 392.5,-416 392.5,-393 220.5,-393"/>
<text text-anchor="start" x="285.5" y="-400.8" font-family="Times,serif" font-size="14.00">Tanh_3</text>
<polygon fill="#dddddd" stroke="none" points="220.5,-370 220.5,-393 392.5,-393 392.5,-370 220.5,-370"/>
<polygon fill="none" stroke="black" points="220.5,-370 220.5,-393 392.5,-393 392.5,-370 220.5,-370"/>
<text text-anchor="start" x="277.5" y="-377.8" font-family="Times,serif" font-size="14.00">(256, 1, 1)</text>
<polygon fill="#b1f1ef" stroke="none" points="220.5,-332 220.5,-370 296.5,-370 296.5,-332 220.5,-332"/>
<polygon fill="none" stroke="black" points="220.5,-332 220.5,-370 296.5,-370 296.5,-332 220.5,-332"/>
<text text-anchor="start" x="246" y="-354.8" font-family="Times,serif" font-size="14.00"> 0.0 </text>
<text text-anchor="start" x="224.5" y="-339.8" font-family="Times,serif" font-size="14.00"> (MFLOPs) </text>
<polygon fill="#fde1fa" stroke="none" points="296.5,-332 296.5,-370 352.5,-370 352.5,-332 296.5,-332"/>
<polygon fill="none" stroke="black" points="296.5,-332 296.5,-370 352.5,-370 352.5,-332 296.5,-332"/>
<text text-anchor="start" x="305" y="-354.8" font-family="Times,serif" font-size="14.00"> 41.25 </text>
<text text-anchor="start" x="300.5" y="-339.8" font-family="Times,serif" font-size="14.00"> (MB/s) </text>
<polygon fill="#ffffcb" stroke="none" points="352.5,-332 352.5,-370 392.5,-370 392.5,-332 352.5,-332"/>
<polygon fill="none" stroke="black" points="352.5,-332 352.5,-370 392.5,-370 392.5,-332 352.5,-332"/>
<text text-anchor="start" x="356.5" y="-354.8" font-family="Times,serif" font-size="14.00"> 0.02 </text>
<text text-anchor="start" x="357.5" y="-339.8" font-family="Times,serif" font-size="14.00"> (ms)</text>
</g>
<!-- add&#45;&gt;Tanh_3 -->
<g id="edge14" class="edge"><title>add&#45;&gt;Tanh_3</title>
<path fill="none" stroke="black" d="M306.5,-455.867C306.5,-447.634 306.5,-438.957 306.5,-430.465"/>
<polygon fill="black" stroke="black" points="310,-430.241 306.5,-420.241 303,-430.241 310,-430.241"/>
</g>
<!-- add_1 -->
<g id="node17" class="node"><title>add_1</title>
<polygon fill="#a3a3a3" stroke="none" points="220.5,-265 220.5,-288 392.5,-288 392.5,-265 220.5,-265"/>
<polygon fill="none" stroke="black" points="220.5,-265 220.5,-288 392.5,-288 392.5,-265 220.5,-265"/>
<text text-anchor="start" x="289.5" y="-272.8" font-family="Times,serif" font-size="14.00">add_1</text>
<polygon fill="#dddddd" stroke="none" points="220.5,-242 220.5,-265 392.5,-265 392.5,-242 220.5,-242"/>
<polygon fill="none" stroke="black" points="220.5,-242 220.5,-265 392.5,-265 392.5,-242 220.5,-242"/>
<text text-anchor="start" x="284" y="-249.8" font-family="Times,serif" font-size="14.00">(1, 1, 1)</text>
<polygon fill="#b0f0ee" stroke="none" points="220.5,-204 220.5,-242 296.5,-242 296.5,-204 220.5,-204"/>
<polygon fill="none" stroke="black" points="220.5,-204 220.5,-242 296.5,-242 296.5,-204 220.5,-204"/>
<text text-anchor="start" x="229" y="-226.8" font-family="Times,serif" font-size="14.00"> 0.000512 </text>
<text text-anchor="start" x="224.5" y="-211.8" font-family="Times,serif" font-size="14.00"> (MFLOPs) </text>
<polygon fill="#fee2fa" stroke="none" points="296.5,-204 296.5,-242 352.5,-242 352.5,-204 296.5,-204"/>
<polygon fill="none" stroke="black" points="296.5,-204 296.5,-242 352.5,-242 352.5,-204 296.5,-204"/>
<text text-anchor="start" x="305" y="-226.8" font-family="Times,serif" font-size="14.00"> 29.89 </text>
<text text-anchor="start" x="300.5" y="-211.8" font-family="Times,serif" font-size="14.00"> (MB/s) </text>
<polygon fill="#ffffcb" stroke="none" points="352.5,-204 352.5,-242 392.5,-242 392.5,-204 352.5,-204"/>
<polygon fill="none" stroke="black" points="352.5,-204 352.5,-242 392.5,-242 392.5,-204 352.5,-204"/>
<text text-anchor="start" x="356.5" y="-226.8" font-family="Times,serif" font-size="14.00"> 0.03 </text>
<text text-anchor="start" x="357.5" y="-211.8" font-family="Times,serif" font-size="14.00"> (ms)</text>
</g>
<!-- Tanh_3&#45;&gt;add_1 -->
<g id="edge15" class="edge"><title>Tanh_3&#45;&gt;add_1</title>
<path fill="none" stroke="black" d="M306.5,-327.867C306.5,-319.634 306.5,-310.957 306.5,-302.465"/>
<polygon fill="black" stroke="black" points="310,-302.241 306.5,-292.241 303,-302.241 310,-302.241"/>
</g>
<!-- output -->
<g id="node18" class="node"><title>output</title>
<polygon fill="#a3a3a3" stroke="none" points="220.5,-137 220.5,-160 392.5,-160 392.5,-137 220.5,-137"/>
<polygon fill="none" stroke="black" points="220.5,-137 220.5,-160 392.5,-160 392.5,-137 220.5,-137"/>
<text text-anchor="start" x="289" y="-144.8" font-family="Times,serif" font-size="14.00">output</text>
<polygon fill="#dddddd" stroke="none" points="220.5,-114 220.5,-137 392.5,-137 392.5,-114 220.5,-114"/>
<polygon fill="none" stroke="black" points="220.5,-114 220.5,-137 392.5,-137 392.5,-114 220.5,-114"/>
<text text-anchor="start" x="284" y="-121.8" font-family="Times,serif" font-size="14.00">(1, 1, 1)</text>
<polygon fill="#b1f1ef" stroke="none" points="220.5,-76 220.5,-114 296.5,-114 296.5,-76 220.5,-76"/>
<polygon fill="none" stroke="black" points="220.5,-76 220.5,-114 296.5,-114 296.5,-76 220.5,-76"/>
<text text-anchor="start" x="246" y="-98.8" font-family="Times,serif" font-size="14.00"> 0.0 </text>
<text text-anchor="start" x="224.5" y="-83.8" font-family="Times,serif" font-size="14.00"> (MFLOPs) </text>
<polygon fill="#fee4fb" stroke="none" points="296.5,-76 296.5,-114 352.5,-114 352.5,-76 296.5,-76"/>
<polygon fill="none" stroke="black" points="296.5,-76 296.5,-114 352.5,-114 352.5,-76 296.5,-76"/>
<text text-anchor="start" x="308.5" y="-98.8" font-family="Times,serif" font-size="14.00"> 0.26 </text>
<text text-anchor="start" x="300.5" y="-83.8" font-family="Times,serif" font-size="14.00"> (MB/s) </text>
<polygon fill="#ffffcc" stroke="none" points="352.5,-76 352.5,-114 392.5,-114 392.5,-76 352.5,-76"/>
<polygon fill="none" stroke="black" points="352.5,-76 352.5,-114 392.5,-114 392.5,-76 352.5,-76"/>
<text text-anchor="start" x="356.5" y="-98.8" font-family="Times,serif" font-size="14.00"> 0.01 </text>
<text text-anchor="start" x="357.5" y="-83.8" font-family="Times,serif" font-size="14.00"> (ms)</text>
</g>
<!-- add_1&#45;&gt;output -->
<g id="edge16" class="edge"><title>add_1&#45;&gt;output</title>
<path fill="none" stroke="black" d="M306.5,-199.867C306.5,-191.634 306.5,-182.957 306.5,-174.465"/>
<polygon fill="black" stroke="black" points="310,-174.241 306.5,-164.241 303,-174.241 310,-174.241"/>
</g>
<!-- Output -->
<g id="node19" class="node"><title>Output</title>
<ellipse fill="none" stroke="black" cx="306.5" cy="-18" rx="66.8882" ry="18"/>
<text text-anchor="middle" x="306.5" y="-14.3" font-family="Times,serif" font-size="14.00">output: [1, 1, 1]</text>
</g>
<!-- output&#45;&gt;Output -->
<g id="edge17" class="edge"><title>output&#45;&gt;Output</title>
<path fill="none" stroke="black" d="M306.5,-71.7292C306.5,-63.0404 306.5,-54.1943 306.5,-46.2922"/>
<polygon fill="black" stroke="black" points="310,-46.2052 306.5,-36.2053 303,-46.2053 310,-46.2052"/>
</g>
<!-- Summary -->
<g id="node20" class="node"><title>Summary</title>
<polygon fill="#c60000" stroke="none" points="404.5,-2215.5 404.5,-2238.5 589.5,-2238.5 589.5,-2215.5 404.5,-2215.5"/>
<polygon fill="none" stroke="black" points="404.5,-2215.5 404.5,-2238.5 589.5,-2238.5 589.5,-2215.5 404.5,-2215.5"/>
<text text-anchor="start" x="469.5" y="-2223.3" font-family="Times,serif" font-size="14.00">Summary</text>
<polygon fill="#e2e2e2" stroke="none" points="404.5,-2192.5 404.5,-2215.5 589.5,-2215.5 589.5,-2192.5 404.5,-2192.5"/>
<polygon fill="none" stroke="black" points="404.5,-2192.5 404.5,-2215.5 589.5,-2215.5 589.5,-2192.5 404.5,-2192.5"/>
<text text-anchor="start" x="447" y="-2200.3" font-family="Times,serif" font-size="14.00">1 SHV Processors</text>
<polygon fill="#dadada" stroke="none" points="404.5,-2169.5 404.5,-2192.5 589.5,-2192.5 589.5,-2169.5 404.5,-2169.5"/>
<polygon fill="none" stroke="black" points="404.5,-2169.5 404.5,-2192.5 589.5,-2192.5 589.5,-2169.5 404.5,-2169.5"/>
<text text-anchor="start" x="429.5" y="-2177.3" font-family="Times,serif" font-size="14.00">Inference time 68.80 ms</text>
<polygon fill="#e2e2e2" stroke="none" points="404.5,-2146.5 404.5,-2169.5 589.5,-2169.5 589.5,-2146.5 404.5,-2146.5"/>
<polygon fill="none" stroke="black" points="404.5,-2146.5 404.5,-2169.5 589.5,-2169.5 589.5,-2146.5 404.5,-2146.5"/>
<text text-anchor="start" x="423" y="-2154.3" font-family="Times,serif" font-size="14.00">Bandwidth 183.38 MB/sec</text>
<polygon fill="#dadada" stroke="none" points="404.5,-2123.5 404.5,-2146.5 589.5,-2146.5 589.5,-2123.5 404.5,-2123.5"/>
<polygon fill="none" stroke="black" points="404.5,-2123.5 404.5,-2146.5 589.5,-2146.5 589.5,-2123.5 404.5,-2123.5"/>
<text text-anchor="start" x="408.5" y="-2131.3" font-family="Times,serif" font-size="14.00">This network is Compute bound</text>
</g>
</g>
</svg>
